<svg
xmlns="http://www.w3.org/2000/svg"
viewBox="0 0 64 64"
width="64"
height="64"
fill="none"
stroke="#000"
stroke-width="2"
>
<path
    d="M32 20a16 16 0 0 0-16 16h32A16 16 0 0 0 32 20z"
    fill="#FFD700"
/>
<path
    d="M16 36h32a12 12 0 0 1 12 12H4a12 12 0 0 1 12-12z"
    fill="#FFD700"
/>
<circle cx="32" cy="18" r="4" fill="#FFD700" />
<path
    d="M32 38c-8 0-14-6-14-14s6-14 14-14 14 6 14 14-6 14-14 14zm0-8c3.31 0 6-2.69 6-6s-2.69-6-6-6-6 2.69-6 6 2.69 6 6 6z"
    fill="#FF6347"
/>
<circle cx="32" cy="24" r="4" fill="#FFFFFF" />
</svg>